<svg height="414.8" width="364.1" viewBox="0 0 415 415">
  <path fill="inherit" d="m182.01.99851c-9.5 0-17.299 7.7988-17.299 17.299 0 9.6 7.6988 17.4 17.299 17.4 3.5912 0 6.9161-1.0789 9.6719-2.9356l136.88 79.033c-.0236.36674-.0566.73118-.0566 1.1035 0 .34946.0326.69076.0527 1.0352l-57.014 32.963c-19.456-28.7-52.335-47.6-89.539-47.6-37.227 0-70.122 18.923-89.574 47.652l-56.79-32.78c.0302-.41833.0644-.83577.0644-1.2617 0-9.5-7.8008-17.301-17.301-17.301-9.6.00001-17.4 7.8008-17.4 17.301.00001 6.8327 3.962 12.736 9.7012 15.582v157.93c-5.739 2.8399-9.7012 8.723-9.7012 15.484 0 9.6 7.8004 17.398 17.4 17.398 9.5 0 17.301-7.7984 17.301-17.398.00001-6.815-4.0247-12.737-9.8008-15.551v-157.8c.74176-.362 1.4637-.75783 2.1426-1.2188l56.77 32.775c-6.9852 14.294-10.912 30.345-10.912 47.295 0 57.045 44.432 103.91 100.5 107.83v65.572c-5.7221 2.8389-9.6992 8.7529-9.6992 15.6 0 9.6 7.6988 17.398 17.299 17.398 9.6 0 17.301-7.7984 17.301-17.398 0-.36659-.0323-.72493-.0547-1.0859l136.76-79.066c2.7802 1.9216 6.1488 3.0508 9.7949 3.0508 9.5 0 17.301-7.7984 17.301-17.398 0-6.815-4.0247-12.737-9.8008-15.551v-157.8c5.7763-2.819 9.8008-8.7615 9.8008-15.648 0-9.5-7.8008-17.301-17.301-17.301-3.5833 0-6.923 1.1118-9.6953 3.0039l-136.86-79c.0301-.42428.0625-.8485.0625-1.2812 0-9.5-7.8008-17.299-17.301-17.299zm0 113.6c31.579 0 59.501 15.829 76.268 39.971l-59.72 34.53c-4.3859-3.9706-10.195-6.3965-16.551-6.3965-13.6 0-24.699 11.101-24.699 24.701 0 10.95 7.1968 20.274 17.1 23.494v68.992c-47.662-3.8747-85.299-43.845-85.299-92.486 0-51.2 41.698-92.801 92.898-92.801zm153.96 12.613c.67892.47276 1.3991.88707 2.1445 1.2598v157.97c-.69195.34804-1.364.72776-2 1.1621l-56.938-32.865c7.0003-14.307 10.936-30.372 10.936-47.342 0-16.972-3.9372-33.041-10.939-47.35l56.797-32.838zm-70.066 40.51c5.7102 12.035 8.9102 25.487 8.9102 39.678 0 48.641-37.547 88.612-85.201 92.486v-68.979c9.9498-3.2082 17.102-12.544 17.102-23.508 0-1.7626-.19075-3.4827-.54492-5.1426l59.734-34.535zm-83.891 30.277c5.3 0 9.5004 4.3004 9.4004 9.4004-.00001 5.2-4.2004 9.3984-9.4004 9.3984s-9.4004-4.1984-9.4004-9.3984 4.2004-9.4004 9.4004-9.4004zm89.543 69.895 57.014 32.908c-.0233.36484-.0566.7273-.0566 1.0977 0 .37119.032.73415.0547 1.0996l-136.77 79.074c-.69147-.47959-1.4254-.89932-2.1836-1.2754v-65.57c34.058-2.3777 63.823-20.601 81.943-47.334z"/>
</svg>
